<?xml version="1.0" encoding="utf-8"?>
<!-- Generator: Adobe Illustrator 23.0.0, SVG Export Plug-In . SVG Version: 6.00 Build 0)  -->
<svg version="1.1" id="Layer_1" xmlns="http://www.w3.org/2000/svg" xmlns:xlink="http://www.w3.org/1999/xlink" x="0px" y="0px"
	 viewBox="0 0 935 571.1" style="enable-background:new 0 0 935 571.1;" xml:space="preserve">
<style type="text/css">
	.st0{fill:#36344E;}
	.st1{fill:#FAAFB2;}
	.st2{fill:#DFDFE0;}
	.st3{fill:#6C63FF;}
	.st4{fill:#484662;}
	.st5{display:none;fill:#484565;}
</style>
<path class="st0" d="M733.5,89.2c0,0-20.6,2.3-21.9,34.2c-1.1,26.6-3.4,41.4,7.4,46.9c3.9,2,8.4,2.2,12.5,0.8l44.1-14.5
	c0,0,0.7-47.8-14.6-59.4S733.5,89.2,733.5,89.2C733.5,89.2,733.5,89.2,733.5,89.2z"/>
<polygon class="st1" points="757.8,162.5 735.5,169.8 735.5,137.7 755.8,137.7 "/>
<path id="uuid-4eda5a58-6320-4b96-8c61-04382cd36dce-284" class="st1" d="M689.6,344.8c-1.2,7.4-6.1,12.6-11,11.8
	c-4.8-0.9-7.8-7.5-6.6-14.9c0.4-2.9,1.6-5.7,3.4-8.1l5.5-31.1l15.1,3.1L689,336C689.9,338.9,690.1,341.9,689.6,344.8
	C689.6,344.8,689.6,344.8,689.6,344.8L689.6,344.8z"/>
<polygon class="st1" points="740.7,551.8 719.8,551.8 707.7,440.1 740,440.1 "/>
<path class="st0" d="M699.4,569.7c-2.2,0-4.2-0.1-5.6-0.2c-5.6-0.5-10.9-4.6-13.5-7c-1.2-1.1-1.6-2.8-1-4.3l0,0
	c0.4-1.1,1.3-1.9,2.4-2.2l14.7-4.2l23.8-16l0.3,0.5c0.1,0.2,2.4,4.4,3.2,7.2c0.3,1.1,0.2,2-0.2,2.7c-0.3,0.5-0.7,0.8-1.1,0.9
	c0.4,0.5,1.8,1.4,5.9,2c6.1,1,7.3-5.3,7.4-5.6l0-0.2l0.2-0.1c2.9-1.9,4.7-2.7,5.3-2.5c0.4,0.1,1,0.3,2.7,17.4
	c0.2,0.5,1.4,4.5,0.6,8.2c-0.9,4.1-18.8,2.7-22.4,2.4C722,568.8,708.6,569.7,699.4,569.7z"/>
<polygon class="st1" points="787.9,551.8 767,551.8 754.9,440.1 787.2,440.1 "/>
<path class="st0" d="M746.7,569.7c-2.2,0-4.2-0.1-5.6-0.2c-5.6-0.5-10.9-4.6-13.5-7c-1.2-1.1-1.6-2.8-1-4.3v0
	c0.4-1.1,1.3-1.9,2.4-2.2l14.7-4.2l23.8-16l0.3,0.5c0.1,0.2,2.4,4.4,3.2,7.2c0.3,1.1,0.2,2-0.2,2.7c-0.3,0.5-0.7,0.8-1.1,0.9
	c0.4,0.5,1.8,1.4,5.9,2c6.1,1,7.3-5.3,7.4-5.6l0-0.2l0.2-0.1c2.9-1.9,4.7-2.7,5.3-2.5c0.4,0.1,1,0.3,2.7,17.4
	c0.2,0.5,1.4,4.5,0.6,8.2c-0.9,4.1-18.8,2.7-22.4,2.4C769.2,568.8,755.8,569.7,746.7,569.7z"/>
<polygon class="st2" points="793.9,277.4 692.4,277.4 728.9,157.3 769.4,157.3 "/>
<path class="st2" d="M735.3,157.3c0,0-25.2-0.7-27.9,6s-33.9,164.6-33.9,164.6h20.6L735.3,157.3z"/>
<circle class="st1" cx="738.3" cy="124.3" r="22.2"/>
<path class="st0" d="M732.2,97.5c0,0-12.2,49.7,1.4,72.9l-19.2-4.1c0,0-7.4-54.4,7.5-64.3L732.2,97.5z"/>
<path class="st0" d="M772.8,277.4h-66.7l-36.5,149.7c-0.7,6.3,3.3,12.2,9.5,13.9c20,5.4,68,13,140.7-8.2c7-2,11-9.4,8.8-16.4
	L772.8,277.4L772.8,277.4z"/>
<g>
	<path class="st2" d="M745.9,157.3l20.7-0.9c9,0.7,17.1,5.6,21.9,13.2c14.6,23.2,42.1,72,17.6,78.7c-32.3,8.8-47.9-40.2-47.9-40.2
		L745.9,157.3L745.9,157.3z"/>
	<path id="uuid-c6b4a34a-6b5e-4c42-b21b-879ce560fe33-285" class="st1" d="M738.8,171.8c-4.3-6.1-4.4-13.3-0.3-16.1
		c4.1-2.8,10.8,0,15.1,6.1c1.7,2.4,2.8,5.2,3.2,8.2l17.7,26.2l-13,8.2l-16.1-26.7C742.7,176.3,740.4,174.3,738.8,171.8
		C738.8,171.8,738.8,171.8,738.8,171.8L738.8,171.8z"/>
	<polygon class="st2" points="749.2,193 763.9,179.5 792.8,206.4 765.9,224.8 	"/>
</g>
<path class="st3" d="M32.4,126.6h459.3c17.9,0,32.4,14.5,32.4,32.4v0c0,17.9-14.5,32.4-32.4,32.4H32.4C14.5,191.4,0,176.9,0,159v0
	C0,141.1,14.5,126.6,32.4,126.6z"/>
<g>
	<path class="st4" d="M268.9,290.4c-16.2,0-29.4-13.2-29.4-29.4s13.2-29.4,29.4-29.4s29.4,13.2,29.4,29.4S285.1,290.4,268.9,290.4z
		 M268.9,239.5c-11.8,0-21.4,9.6-21.4,21.4s9.6,21.4,21.4,21.4s21.4-9.6,21.4-21.4S280.7,239.5,268.9,239.5z"/>
	<path class="st4" d="M324.4,314.5c-0.9,0-1.8-0.3-2.6-1l-37.2-31.9c-1.7-1.4-1.9-4-0.4-5.6c1.4-1.7,4-1.9,5.6-0.4l37.2,31.9
		c1.7,1.4,1.9,4,0.4,5.6C326.7,314,325.5,314.5,324.4,314.5z"/>
</g>
<path class="st5" d="M203.3,569.9c0,0.7,0.5,1.2,1.2,1.2h729.3c0.7,0,1.2-0.5,1.2-1.2c0-0.7-0.5-1.2-1.2-1.2H204.5
	C203.8,568.8,203.3,569.3,203.3,569.9z"/>
<path class="st2" d="M424.6,94H520c2.3,0,4.1,1.8,4.1,4.1v0c0,2.3-1.8,4.1-4.1,4.1h-95.4c-2.3,0-4.1-1.8-4.1-4.1v0
	C420.5,95.8,422.3,94,424.6,94z"/>
<path class="st2" d="M4.1,0h95.4c2.3,0,4.1,1.8,4.1,4.1v0c0,2.3-1.8,4.1-4.1,4.1H4.1C1.8,8.2,0,6.4,0,4.1v0C0,1.8,1.8,0,4.1,0z"/>
<path class="st2" d="M4.1,35.9H284c2.3,0,4.1,1.8,4.1,4.1v0c0,2.3-1.8,4.1-4.1,4.1H4.1C1.8,44.1,0,42.3,0,40v0
	C0,37.8,1.8,35.9,4.1,35.9z"/>
</svg>
